<svg width="173" height="35" viewBox="0 0 173 35" fill="none" xmlns="http://www.w3.org/2000/svg">
<path d="M5.232 28H8.28V12.784H12.936V10.12H0.552V12.784H5.232V28ZM19.2296 28.288C22.9976 28.288 26.0216 25.432 26.0216 21.52C26.0216 17.608 23.0216 14.776 19.2296 14.776C15.4136 14.776 12.4376 17.608 12.4376 21.52C12.4376 25.432 15.4376 28.288 19.2296 28.288ZM19.2296 25.624C17.0216 25.624 15.4376 23.92 15.4376 21.544C15.4376 19.168 17.0216 17.44 19.2296 17.44C21.4136 17.44 23.0216 19.168 23.0216 21.544C23.0216 23.92 21.4136 25.624 19.2296 25.624ZM38.5999 25.576V19.36C38.5999 16.672 36.4399 14.776 33.2959 14.776C30.7279 14.776 28.5679 16.144 27.8239 18.112L30.3199 19.36C30.7999 18.136 31.9039 17.368 33.2959 17.368C34.7359 17.368 35.7199 18.16 35.7199 19.36V19.768L31.4719 20.68C28.8559 21.256 27.3439 22.528 27.3439 24.448C27.3439 26.656 29.1679 28.288 32.0479 28.288C33.6079 28.288 34.9279 27.712 35.8879 26.56V28H40.4959V25.576H38.5999ZM32.3839 26.008C31.1359 26.008 30.3439 25.408 30.3439 24.424C30.3439 23.632 30.9679 23.008 32.0479 22.768L35.7199 21.952V22.792C35.7199 24.616 34.3039 26.008 32.3839 26.008ZM47.1864 28.288C50.1384 28.288 52.1784 26.704 52.1784 24.376C52.1784 22.576 50.9784 21.28 48.7464 20.656L46.4424 20.008C45.6984 19.792 44.8824 19.384 44.8824 18.568C44.8824 17.752 45.6264 17.2 46.8264 17.2C48.2904 17.2 49.4424 17.944 49.9224 19.168L52.1784 18.112C51.3864 16.048 49.3704 14.776 46.8264 14.776C43.9704 14.776 42.0264 16.36 42.0264 18.688C42.0264 20.44 43.1544 21.76 45.4104 22.384L47.6184 22.96C48.4104 23.176 49.3224 23.56 49.3224 24.448C49.3224 25.336 48.4824 25.936 47.1864 25.936C45.6504 25.936 44.3784 25.12 43.7064 23.584L41.4744 24.664C42.2904 26.92 44.4984 28.288 47.1864 28.288ZM59.9818 28.144C60.4378 28.144 61.0138 28.096 61.4698 28.024V25.72C61.1578 25.768 60.8458 25.792 60.6058 25.792C58.7818 25.792 58.3258 24.76 58.3258 23.656V17.656H61.3978V15.064H58.3258V11.056H55.4458V13.12C55.4458 14.368 54.7258 15.064 53.4778 15.064H53.0938V17.656H55.4458V23.656C55.4458 26.512 57.0778 28.144 59.9818 28.144ZM64.4374 13.36H67.3174V10.12H64.4374V13.36ZM64.4374 28H67.3174V15.064H62.4454V17.656H64.4374V28ZM71.145 28H74.025V17.656H76.953V15.064H74.025V14.32C74.025 13 74.865 12.304 76.233 12.304C76.449 12.304 76.833 12.328 77.121 12.376V9.88C76.809 9.808 76.257 9.76 75.873 9.76C73.041 9.76 71.145 11.416 71.145 14.32V15.064H68.817V17.656H71.145V28ZM78.753 13.36H81.633V10.12H78.753V13.36ZM78.753 28H81.633V15.064H78.753V28ZM90.2184 28.288C92.9784 28.288 95.2344 26.704 96.0024 24.592L93.5064 23.32C93.0024 24.736 91.8024 25.624 90.2184 25.624C88.1064 25.624 86.5704 23.896 86.5704 21.544C86.5704 19.144 88.1064 17.44 90.2184 17.44C91.7784 17.44 93.0024 18.352 93.5064 19.744L96.0024 18.496C95.2104 16.312 92.9544 14.776 90.2184 14.776C86.4024 14.776 83.5704 17.656 83.5704 21.52C83.5704 25.384 86.4264 28.288 90.2184 28.288ZM108.373 25.576V19.36C108.373 16.672 106.213 14.776 103.069 14.776C100.501 14.776 98.3413 16.144 97.5973 18.112L100.093 19.36C100.573 18.136 101.677 17.368 103.069 17.368C104.509 17.368 105.493 18.16 105.493 19.36V19.768L101.245 20.68C98.6293 21.256 97.1173 22.528 97.1173 24.448C97.1173 26.656 98.9413 28.288 101.821 28.288C103.381 28.288 104.701 27.712 105.661 26.56V28H110.269V25.576H108.373ZM102.157 26.008C100.909 26.008 100.117 25.408 100.117 24.424C100.117 23.632 100.741 23.008 101.821 22.768L105.493 21.952V22.792C105.493 24.616 104.077 26.008 102.157 26.008ZM117.896 28.144C118.352 28.144 118.928 28.096 119.384 28.024V25.72C119.072 25.768 118.76 25.792 118.52 25.792C116.696 25.792 116.24 24.76 116.24 23.656V17.656H119.312V15.064H116.24V11.056H113.36V13.12C113.36 14.368 112.64 15.064 111.392 15.064H111.008V17.656H113.36V23.656C113.36 26.512 114.992 28.144 117.896 28.144ZM122.351 13.36H125.231V10.12H122.351V13.36ZM122.351 28H125.231V15.064H120.359V17.656H122.351V28ZM134.003 28.288C137.771 28.288 140.795 25.432 140.795 21.52C140.795 17.608 137.795 14.776 134.003 14.776C130.187 14.776 127.211 17.608 127.211 21.52C127.211 25.432 130.211 28.288 134.003 28.288ZM134.003 25.624C131.795 25.624 130.211 23.92 130.211 21.544C130.211 19.168 131.795 17.44 134.003 17.44C136.187 17.44 137.795 19.168 137.795 21.544C137.795 23.92 136.187 25.624 134.003 25.624ZM149.221 14.776C147.613 14.776 146.269 15.424 145.549 16.624V15.064H142.837V28H145.717V20.32C145.717 18.568 146.821 17.44 148.477 17.44C150.109 17.44 151.213 18.568 151.213 20.32V28H154.093V19.6C154.093 16.768 152.101 14.776 149.221 14.776Z" fill="black"/>
<path d="M155.076 9.48209C154.78 9.40239 154.78 8.98242 155.076 8.90272L161.076 7.28731C161.179 7.25951 161.259 7.17886 161.287 7.07562L162.903 1.07591C162.982 0.779901 163.402 0.779902 163.482 1.07591L165.097 7.07562C165.125 7.17886 165.206 7.25951 165.309 7.28731L171.309 8.90272C171.605 8.98242 171.605 9.40239 171.309 9.48209L165.309 11.0975C165.206 11.1253 165.125 11.2059 165.097 11.3092L163.482 17.3089C163.402 17.6049 162.982 17.6049 162.903 17.3089L161.287 11.3092C161.259 11.2059 161.179 11.1253 161.076 11.0975L155.076 9.48209Z" fill="#1A1920"/>
</svg>
